<?xml version="1.0" encoding="UTF-8"?>
<!DOCTYPE svg PUBLIC "-//W3C//DTD SVG 1.1//EN" "http://www.w3.org/Graphics/SVG/1.1/DTD/svg11.dtd">
<!-- Creator: CorelDRAW 2021 (64-Bit) -->
<svg xmlns="http://www.w3.org/2000/svg" xml:space="preserve" width="173.567mm" height="173.567mm" version="1.1" style="shape-rendering:geometricPrecision; text-rendering:geometricPrecision; image-rendering:optimizeQuality; fill-rule:evenodd; clip-rule:evenodd"
viewBox="0 0 2997.94 2997.94"
 xmlns:xlink="http://www.w3.org/1999/xlink"
 xmlns:xodm="http://www.corel.com/coreldraw/odm/2003">
 <defs>
  <style type="text/css">
   <![CDATA[
    .fil0 {fill:#0C66EA}
    .fil1 {fill:white;fill-rule:nonzero}
   ]]>
  </style>
 </defs>
 <g id="Plan_x0020_1">
  <metadata id="CorelCorpID_0Corel-Layer"/>
  <circle class="fil0" cx="1498.97" cy="1498.97" r="1498.97"/>
  <path class="fil1" d="M1067.01 440.09l-36.86 -2.7 13.04 -79.11 23.82 81.81zm65.63 62.93l-62.93 -31.47 31.47 -26.52 31.46 57.99zm-136.65 -42.25l0 5.39 -13.49 34.16 -15.73 -18.43 29.22 -21.13zm418.49 1564.71l-31.47 155.53 -68.33 -73.72 -68.77 84.06 -47.2 -44.95 -13.04 2.7 -50.34 50.34 -44.5 -36.86 -84.51 26.07 -34.16 -47.2 -13.04 71.02 -42.25 -81.81 -10.34 60.68 -47.65 -73.72 -47.2 31.46 -21.13 -26.07 -155.53 -66.08 -42.25 26.52 -34.16 -152.83 -76.41 -100.24 -23.82 18.43 -34.16 -68.32 2.7 -23.82 -31.47 -86.75 39.56 -129.01 15.73 47.2c21.13,-6.74 31.47,-26.97 31.47,-60.68l92.15 -60.23 63.38 -55.29 42.25 -15.73 94.85 20.68 28.77 -65.63 115.97 -39.56 39.56 15.73 41.8 -7.64 0 -200.48 -28.77 -481.87 52.59 102.94 26.52 -18.43 -26.52 -129.46 18.43 -126.31 71.02 60.68 -13.04 23.82 39.56 57.99 31.46 -92.6 44.95 76.41 2.7 -62.93 139.34 110.58 -7.64 92.15 21.13 60.68 -5.39 39.56c0,4.95 13.93,26.07 42.25,62.93l-126.76 276.89c7.19,6.74 22.93,16.63 47.65,28.77l-8.09 -34.16 50.34 -87.2 -10.79 -23.37 29.22 -31.91 -29.22 186.99 -23.82 29.22c5.39,13.93 7.19,26.07 5.39,36.86l-21.13 0 -23.37 244.98 15.73 102.49 -8.09 44.95 21.13 150.13 31.47 76.42 -21.13 60.68 21.13 23.37 39.56 -4.95 10.79 0 4.95 49.89zm-113.28 -1345.81l-2.25 -21.13 0 -2.7 -16.18 -8.09 0 44.95 5.39 0 13.04 -13.04zm-247.23 105.18l-23.82 36.86 13.04 26.52 10.79 -63.38zm305.21 92.15l-52.59 -65.63 -7.64 62.93 4.95 0 44.95 26.52 10.34 -23.82zm-99.79 55.29l-5.39 -26.07c-28.32,35.06 -43.15,59.33 -44.95,73.72l10.79 23.82 39.56 -71.47zm-68.77 42.25l-49.89 5.39 26.52 44.5 23.37 -49.9zm-62.93 208.12l-21.13 -10.34 -5.39 0 0 39.11 26.52 -28.77zm176.2 115.97l-10.34 -34.16c-3.6,-10.79 -13.04,-25.62 -29.22,-44.95l0 21.13 39.56 57.99zm-221.15 73.72l-13.04 -8.09 -18.43 42.25 -2.7 0c-31.47,-22.92 -55.29,-43.15 -71.02,-60.68l10.34 60.68 29.22 15.73 2.25 39.56 63.38 -89.45zm-502.99 168.56c-3.6,-5.39 -5.39,-10.79 -5.39,-15.73 0,-5.39 -0.9,-12.59 -2.7,-21.13l-21.13 39.56 -26.07 7.64 34.16 42.25 21.13 -52.59zm463.44 453.1l-18.43 -302.96 15.73 -52.59 -21.13 -21.13 5.39 -23.82 -57.99 -71.02 -86.75 73.72 -29.22 -10.79 0 -39.11 -84.06 129.01 -52.59 -50.34 -13.04 39.56 78.66 165.87 23.82 -21.13 28.77 74.17 182.05 92.15 -13.48 36.86 42.25 -18.43zm-524.12 -345.22l-18.43 -65.63 -18.43 49.89 8.09 23.82 28.77 0 0 -8.09zm750.67 195.08l-15.73 -182.05 -26.52 66.08 36.86 150.13 5.39 -34.16zm-576.71 -89.9l0 -31.47 -8.09 39.56 8.09 -8.09zm-210.82 5.39l-7.64 -28.77 -39.56 -2.7 23.37 47.2 23.82 -15.73zm658.52 137.1l-21.13 -21.13 -7.64 2.7 -8.09 18.43 31.47 42.25 5.39 -42.25zm-150.13 -1359.29l-18.43 68.77 -13.04 -60.68 31.47 -8.09zm526.82 1464.48l-15.73 52.59 -34.16 -49.9 18.43 -21.13 31.47 18.43zm0 81.81l-21.13 18.43 -76.41 31.47 36.86 -89.45 60.68 39.56zm1085.09 -255.77l-39.56 66.08 -36.86 -23.82 -92.15 118.67 -34.16 -15.73 -53.04 81.36 -150.13 115.97 -10.34 -47.2 -21.13 -21.13 -8.09 0 -7.64 23.82 23.82 81.36 0 5.39 -39.56 -13.04 -129.01 60.23 -81.81 -47.2 34.16 -44.95 -49.9 23.82 -94.85 10.34 -31.46 -23.37 -92.15 -176.65 -18.88 5.39 -75.96 -92.15 0 -23.82 39.11 34.16 -4.95 -60.68 26.07 -60.23 -34.16 -39.56 -31.47 36.86 0 -39.56 -26.52 2.7 36.86 -171.26 -31.47 -79.11 31.47 -168.56 -28.77 -18.43 65.63 -44.5 34.16 -68.77 -18.43 -34.16 0 -21.13 42.25 10.79 63.38 -68.77 10.34 21.13 -10.34 50.34 28.77 20.68c12.59,-54.39 26.52,-96.19 42.25,-126.31l49.89 66.08 47.65 -102.94 23.82 23.82 62.93 -42.25 26.52 18.43 39.56 -28.77 26.07 41.8 31.91 -28.77 178.9 49.9 84.51 36.86 94.39 71.47 23.82 -16.18 71.02 121.37 -2.25 81.36 -18.43 37.31 -21.13 -16.18 -60.68 92.15 -18.43 -4.94 -87.2 105.18c-10.34,1.8 -28.77,-7.64 -55.29,-28.77l-10.34 21.13 10.34 31.47 -23.37 28.77 -36.86 -4.95 -21.13 34.16 -47.65 -34.16 -242.28 133.95 0 5.39 5.39 -65.63 -26.52 28.77 -31.47 -26.52 60.68 147.89 -21.13 60.23 105.18 5.39 2.7 76.41 26.52 -52.59 21.13 5.39 86.75 -42.25 21.13 5.39 271.05 -281.84 31.91 18.43 -36.86 18.43 -26.52 39.11c38.66,-15.73 58.89,-26.97 60.68,-34.16l21.13 71.47 7.64 -47.65 29.22 -10.34 7.64 26.07 -15.73 79.11 44.95 34.16 2.7 13.04zm-289.93 -458.04c-59.78,-47.65 -104.28,-88.55 -134.4,-123.61 -12.14,-14.38 -33.26,-23.82 -62.93,-29.22l-87.2 71.02 -7.64 -26.07 -29.22 21.13 -31.47 -5.39 42.25 -55.29 -163.62 120.92 31.91 71.47 -8.09 112.82 2.7 23.82 302.96 -84.06 42.25 -108.33 49.9 44.95 2.7 -34.16 49.89 0zm-281.84 -57.99l-52.59 10.34 -5.39 23.82 -39.56 -47.2 44.95 0 52.59 13.04zm505.69 -55.29l-10.34 0 -23.82 36.86 31.47 15.73 2.7 -52.59zm-861.24 253.07l-60.68 -74.17 -4.95 0 10.34 42.25c1.8,12.59 10.79,33.26 26.52,63.38l28.77 -31.47zm66.08 2.25l-13.48 -15.73 -21.13 10.79c-4.95,3.15 -17.98,19.33 -39.11,47.2l73.72 -42.25zm453.1 76.41l-42.25 8.09 -2.7 0 -5.39 -26.52 -49.89 60.68 62.93 -10.34 37.31 -31.91zm-292.63 173.96l-47.2 -86.75 -31.91 39.56 21.13 26.07 57.99 21.13zm2.7 42.25l-2.7 -8.09 -13.04 -5.39 -26.52 23.82 15.73 21.13 26.52 -31.46zm-100.24 302.96l0 -23.82 -39.56 0 26.52 68.33 13.04 -44.5zm-205.42 -893.16l-10.34 39.56 10.34 34.16 -44.5 -18.43 34.16 -76.41 10.34 21.13z"/>
 </g>
</svg>
